<svg width="225" height="56" viewBox="0 0 225 56" fill="none" xmlns="http://www.w3.org/2000/svg">
<path d="M224.857 11.8263C224.857 11.3976 224.857 10.9689 224.857 10.5402C224.839 9.59894 224.755 8.667 224.596 7.73506C224.447 6.81245 224.149 5.90847 223.73 5.06973C222.863 3.38293 221.502 2.01298 219.816 1.14628C218.968 0.71759 218.073 0.42869 217.141 0.270261C216.218 0.111832 215.286 0.0372774 214.345 0.0186387C213.916 0.0186387 213.478 0 213.05 0H11.8169C11.3883 0 10.9596 0.00931935 10.5309 0.0186387C9.58962 0.0279581 8.65768 0.111832 7.72574 0.270261C6.80313 0.42869 5.89915 0.72691 5.06041 1.14628C4.22167 1.57497 3.45748 2.13413 2.79581 2.79581C2.12481 3.45748 1.57497 4.22167 1.14628 5.06041C0.71759 5.89915 0.42869 6.80313 0.270261 7.73506C0.111832 8.65768 0.0279581 9.58962 0.0186387 10.5309C0.00931935 10.9596 0.00931935 11.3883 0 11.8169V44.1831C0 44.6211 0 45.0404 0.0186387 45.4691C0.0279581 46.4104 0.111832 47.3423 0.270261 48.2743C0.42869 49.2062 0.71759 50.1008 1.14628 50.9396C1.56565 51.7783 2.12481 52.5425 2.79581 53.1949C3.45748 53.8659 4.22167 54.4157 5.06041 54.8444C5.89915 55.2731 6.79381 55.5713 7.72574 55.7297C8.65768 55.8788 9.58962 55.9627 10.5309 55.9814C10.9596 55.9814 11.3883 56 11.8169 56H213.04C213.469 56 213.907 56 214.327 55.9814C215.268 55.972 216.2 55.8882 217.122 55.7297C218.054 55.5713 218.949 55.2731 219.797 54.8444C220.636 54.4157 221.4 53.8659 222.062 53.1949C222.733 52.5332 223.282 51.769 223.711 50.9396C224.13 50.1008 224.429 49.1969 224.578 48.2743C224.736 47.3516 224.82 46.4104 224.839 45.4691C224.839 45.0311 224.839 44.6117 224.839 44.1831C224.848 43.6705 224.848 43.1672 224.848 42.6547V13.3546C224.848 12.8421 224.848 12.3295 224.848 11.8263H224.857Z" fill="white"/>
<path d="M211.027 1.1556H213.031C213.376 1.1556 213.721 1.1556 214.075 1.16492H214.308C215.193 1.17424 216.069 1.24879 216.936 1.3979C217.747 1.53769 218.539 1.79864 219.275 2.16209C220.738 2.91696 221.94 4.10984 222.686 5.57297C223.059 6.31852 223.32 7.11067 223.45 7.93077C223.59 8.79747 223.674 9.66417 223.692 10.5402C223.692 10.9689 223.692 11.3883 223.692 11.8449C223.702 12.3388 223.702 12.8421 223.702 13.3453V42.6547C223.702 43.1672 223.702 43.6612 223.692 44.1831C223.692 44.6117 223.692 45.0311 223.692 45.4319C223.674 46.3172 223.599 47.2025 223.45 48.0879C223.32 48.8987 223.068 49.6815 222.695 50.4177C222.323 51.1539 221.829 51.8156 221.241 52.3934C220.664 52.9712 220.002 53.4558 219.275 53.8286C218.53 54.2014 217.737 54.4623 216.917 54.6021C216.051 54.7419 215.175 54.8164 214.299 54.8351C213.879 54.8351 213.45 54.8537 213.031 54.8537H11.8169C11.3976 54.8537 10.9782 54.8537 10.5588 54.8351C9.67349 54.8258 8.79747 54.7512 7.93077 54.6021C7.11067 54.4623 6.32784 54.2014 5.58229 53.8286C4.84606 53.4558 4.17507 52.9712 3.59727 52.3841C3.01947 51.8063 2.53486 51.1446 2.16209 50.4177C1.78932 49.6815 1.52837 48.8893 1.3979 48.0692C1.25811 47.2025 1.17424 46.3172 1.16492 45.4412C1.16492 45.1523 1.1556 44.8634 1.14628 44.5838V11.4255C1.14628 11.1366 1.14628 10.857 1.16492 10.5681C1.17424 9.68281 1.25811 8.80679 1.3979 7.93077C1.53769 7.11999 1.78932 6.32784 2.16209 5.59161C2.53486 4.85538 3.01947 4.19371 3.59727 3.61591C4.17507 3.03811 4.84606 2.5535 5.57297 2.18073C6.3092 1.80795 7.10135 1.54701 7.91213 1.40722C8.77883 1.26743 9.65485 1.19288 10.5309 1.17424H10.8105C11.1459 1.17424 11.4721 1.16492 11.8076 1.16492H211.027V1.1556ZM211.027 0H11.8169C11.3883 0 10.9596 0.00931935 10.5309 0.0186387C9.58961 0.0279581 8.65768 0.111832 7.72574 0.270261C6.80313 0.42869 5.89915 0.72691 5.06041 1.14628C4.22167 1.57497 3.45748 2.13413 2.79581 2.79581C2.12481 3.45748 1.57497 4.22167 1.14628 5.06041C0.71759 5.89915 0.42869 6.80313 0.270261 7.73506C0.111832 8.65768 0.0279581 9.58962 0.0186387 10.5309C0.00931935 10.9596 0.00931935 11.3883 0 11.8169V44.1831C0 44.6211 0 45.0404 0.0186387 45.4691C0.0279581 46.4104 0.111832 47.3423 0.270261 48.2743C0.42869 49.2062 0.71759 50.1008 1.14628 50.9396C1.56565 51.7783 2.12481 52.5425 2.79581 53.1949C3.45748 53.8659 4.22167 54.4157 5.06041 54.8444C5.89915 55.2731 6.79381 55.5713 7.72574 55.7297C8.65768 55.8788 9.58961 55.9627 10.5309 55.9814C10.9596 55.9814 11.3883 56 11.8169 56H213.04C213.469 56 213.907 56 214.326 55.9814C215.268 55.972 216.2 55.8882 217.122 55.7297C218.054 55.5713 218.949 55.2731 219.797 54.8444C220.636 54.4157 221.4 53.8659 222.062 53.1949C222.733 52.5332 223.282 51.769 223.711 50.9396C224.13 50.1008 224.429 49.1969 224.578 48.2743C224.736 47.3516 224.82 46.4104 224.839 45.4691C224.839 45.0311 224.839 44.6117 224.839 44.1831C224.848 43.6705 224.848 43.1672 224.848 42.6547V13.3546C224.848 12.8421 224.848 12.3295 224.839 11.8263C224.839 11.3976 224.839 10.9689 224.839 10.5402C224.82 9.59894 224.736 8.667 224.578 7.73506C224.429 6.81245 224.13 5.90847 223.711 5.06973C222.844 3.38293 221.484 2.01298 219.797 1.14628C218.958 0.72691 218.054 0.42869 217.122 0.270261C216.2 0.111832 215.268 0.0372774 214.326 0.0186387C213.898 0.0186387 213.46 0 213.031 0H211.018L211.027 0Z" fill="black"/>
<path d="M64.4536 38.9703H57.8182L56.2246 43.6766H53.4194L59.7007 26.2773H62.6176L68.8989 43.6766H66.0378L64.4442 38.9703H64.4536ZM58.5078 36.7989H63.7639L61.1731 29.1663H61.0986L58.5078 36.7989Z" fill="black"/>
<path d="M82.4576 37.3318C82.4576 41.2739 80.3515 43.8088 77.1642 43.8088C75.5147 43.8927 73.9677 43.0353 73.1755 41.5908H73.1196V47.872H70.5195V30.9853H73.0358V33.0915H73.0824C73.9118 31.6563 75.4681 30.799 77.1176 30.8456C80.3421 30.8456 82.4669 33.3897 82.4669 37.3225L82.4576 37.3318ZM79.783 37.3318C79.783 34.769 78.4596 33.0729 76.428 33.0729C74.3964 33.0729 73.101 34.797 73.101 37.3318C73.101 39.8667 74.443 41.6001 76.428 41.6001C78.413 41.6001 79.783 39.9226 79.783 37.3318Z" fill="black"/>
<path d="M96.4098 37.3318C96.4098 41.2739 94.3036 43.8088 91.1164 43.8088C89.4669 43.8927 87.9198 43.0353 87.1277 41.5908H87.0718V47.872H84.4717V30.9853H86.9879V33.0915H87.0345C87.8639 31.6563 89.4203 30.799 91.0698 30.8456C94.2943 30.8456 96.4098 33.3897 96.4098 37.3225V37.3318ZM93.7351 37.3318C93.7351 34.769 92.4118 33.0729 90.3802 33.0729C88.3485 33.0729 87.0531 34.797 87.0531 37.3318C87.0531 39.8667 88.3951 41.6001 90.3802 41.6001C92.3652 41.6001 93.7351 39.9226 93.7351 37.3318Z" fill="black"/>
<path d="M98.5076 26.2705H101.108V43.6697H98.5076V26.2705Z" fill="black"/>
<path d="M114.665 39.9444C114.311 42.2463 112.074 43.8306 109.204 43.8306C105.514 43.8306 103.221 41.361 103.221 37.3909C103.221 33.4209 105.523 30.8301 109.092 30.8301C112.661 30.8301 114.805 33.2438 114.805 37.0927V37.9873H105.849V38.1458C105.691 39.963 107.033 41.566 108.85 41.7244C108.99 41.7337 109.129 41.743 109.26 41.7337C110.527 41.8549 111.711 41.128 112.186 39.9444H114.656H114.665ZM105.858 36.1608H112.205C112.298 34.4739 111.012 33.0388 109.325 32.9456C109.251 32.9456 109.167 32.9456 109.092 32.9456C107.321 32.9363 105.868 34.3621 105.858 36.1328C105.858 36.1421 105.858 36.1514 105.858 36.1608Z" fill="black"/>
<path d="M133.779 43.6791V35.972H124.842V43.6791H122.139V26.2705H124.842V33.6235H133.779V26.2705H136.482V43.6697H133.779V43.6791Z" fill="black"/>
<path d="M138.792 37.3282C138.792 33.3395 141.14 30.8232 144.812 30.8232C148.484 30.8232 150.832 33.3301 150.832 37.3282C150.832 41.3262 148.503 43.8237 144.812 43.8237C141.122 43.8237 138.792 41.3355 138.792 37.3282ZM148.176 37.3282C148.176 34.5883 146.918 32.976 144.812 32.976C142.706 32.976 141.448 34.6069 141.448 37.3282C141.448 40.0494 142.706 41.6803 144.812 41.6803C146.918 41.6803 148.176 40.0774 148.176 37.3282Z" fill="black"/>
<path d="M152.848 30.9908H155.336V33.1622H155.392C155.989 31.7084 157.433 30.7858 158.999 30.851C160.611 30.7578 162.083 31.7829 162.54 33.3393H162.596C163.276 31.7736 164.851 30.7858 166.547 30.851C168.71 30.7205 170.573 32.37 170.695 34.5321C170.704 34.6999 170.695 34.8676 170.695 35.0447V43.6744H168.085V35.6598C168.253 34.411 167.377 33.274 166.128 33.1063C165.97 33.0876 165.821 33.0783 165.662 33.097C164.246 33.069 163.071 34.1873 163.043 35.6039C163.043 35.6784 163.043 35.753 163.043 35.8368V43.6837H160.49V35.4827C160.574 34.2526 159.651 33.1808 158.412 33.097C158.3 33.097 158.197 33.097 158.085 33.097C156.622 33.097 155.439 34.2805 155.439 35.7436C155.439 35.8089 155.439 35.8741 155.439 35.93V43.6837H152.829V31.0001L152.848 30.9908Z" fill="black"/>
<path d="M184.094 39.9444C183.749 42.2463 181.504 43.8306 178.633 43.8306C174.943 43.8306 172.65 41.361 172.65 37.3909C172.65 33.4209 174.952 30.8301 178.521 30.8301C182.091 30.8301 184.234 33.2438 184.234 37.0927V37.9873H175.278V38.1458C175.12 39.963 176.462 41.566 178.279 41.7244C178.419 41.7337 178.559 41.743 178.698 41.7337C179.966 41.8549 181.159 41.128 181.625 39.9444H184.094ZM175.288 36.1608H181.634C181.727 34.4833 180.441 33.0388 178.764 32.9456C178.689 32.9456 178.605 32.9456 178.531 32.9456C176.76 32.9363 175.306 34.3621 175.297 36.1421C175.297 36.1421 175.297 36.1607 175.297 36.1701L175.288 36.1608Z" fill="black"/>
<path d="M186.564 43.6791V26.2705H189.266V34.5554H189.378L196.647 26.2705H199.853L192.957 33.9776L200.431 43.6697H197.076L191.046 35.8322L189.257 37.8731V43.6791H186.554H186.564Z" fill="black"/>
<path d="M201.717 27.6538C201.698 26.8151 202.36 26.1255 203.199 26.1068C204.037 26.0882 204.727 26.7499 204.746 27.5886C204.764 28.4273 204.103 29.117 203.264 29.1356C203.255 29.1356 203.236 29.1356 203.227 29.1356C202.397 29.1356 201.726 28.4739 201.717 27.6538ZM201.922 30.9995H204.522V43.6831H201.922V30.9995Z" fill="black"/>
<path d="M210.57 27.9863V30.9872H212.984V33.0467H210.57V40.0363C210.57 41.1266 211.055 41.6299 212.117 41.6299C212.406 41.6299 212.686 41.6019 212.975 41.5739V43.6242C212.499 43.7174 212.015 43.7547 211.53 43.7454C208.958 43.7454 207.961 42.7855 207.961 40.3252V33.0561H206.115V30.9872H207.961V27.9863H210.579H210.57Z" fill="black"/>
<path d="M56.5308 20.6523H55.3099L53.064 12.3115H54.406L55.9343 18.6953H56.0182L57.7516 12.3115H58.9538L60.7058 18.6953H60.7897L62.3088 12.3115H63.6508L61.3955 20.6523H60.1746L58.3853 14.5295H58.3014L56.5214 20.6523H56.5308Z" fill="black"/>
<path d="M64.3398 17.5079C64.3398 15.4762 65.4768 14.2461 67.3127 14.2461C69.1486 14.2461 70.2763 15.4856 70.2763 17.5079C70.2763 19.5302 69.1486 20.779 67.3127 20.779C65.4768 20.779 64.3398 19.5488 64.3398 17.5079ZM68.9995 17.5079C68.9995 16.1472 68.3844 15.3458 67.3127 15.3458C66.241 15.3458 65.6259 16.1472 65.6259 17.5079C65.6259 18.8685 66.2317 19.67 67.3127 19.67C68.3938 19.67 68.9995 18.8685 68.9995 17.5079Z" fill="black"/>
<path d="M71.9551 14.3614H73.148V15.3213H73.2411C73.5114 14.6316 74.201 14.2029 74.9373 14.2495C75.1237 14.2495 75.31 14.2682 75.4964 14.3055V15.5356C75.2728 15.489 75.0398 15.4611 74.8068 15.4611C73.996 15.3865 73.2784 15.9829 73.2039 16.7937C73.2039 16.8403 73.2039 16.8869 73.2039 16.9335V20.6519H71.9551V14.3614Z" fill="black"/>
<path d="M80.7805 14.3592H82.2437L79.6529 17.0618L82.4114 20.6591H80.883L78.721 17.8819L78.1711 18.4038V20.6591H76.9316V11.9082H78.1711V16.9873H78.2643L80.7619 14.3685L80.7805 14.3592Z" fill="black"/>
<path d="M85.8036 14.2461C87.2201 14.2461 88.1427 14.9078 88.2639 16.0168H87.071C86.9592 15.5508 86.5025 15.2619 85.8036 15.2619C85.1046 15.2619 84.5827 15.5881 84.5827 16.082C84.5827 16.4548 84.8996 16.6971 85.5799 16.8462L86.6237 17.0885C87.8165 17.3681 88.3757 17.8806 88.3757 18.8033C88.3757 19.9868 87.276 20.779 85.7663 20.779C84.2565 20.779 83.2966 20.0986 83.1848 18.9896H84.4243C84.6479 19.5395 85.2071 19.8563 85.7942 19.7725C86.5677 19.7725 87.1176 19.4277 87.1176 18.9244C87.1176 18.5516 86.8194 18.3093 86.195 18.1602L85.0953 17.9086C83.9024 17.629 83.3432 17.0885 83.3432 16.1472C83.3432 15.0289 84.3684 14.2461 85.7942 14.2461H85.8036Z" fill="black"/>
<path d="M99.9514 20.646H98.6654L97.3607 16.0143H97.2675L95.9721 20.646H94.6953L92.9619 14.3555H94.22L95.3477 19.1549H95.4409L96.7363 14.3555H97.9291L99.2245 19.1549H99.3177L100.436 14.3555H101.676L99.9514 20.646Z" fill="black"/>
<path d="M102.999 12.4981C102.971 12.0508 103.316 11.678 103.754 11.65C104.201 11.6221 104.574 11.9669 104.602 12.4049C104.63 12.8522 104.285 13.225 103.847 13.253C103.828 13.253 103.819 13.253 103.8 13.253C103.381 13.2716 103.017 12.9454 102.999 12.526V12.4888V12.4981ZM103.185 14.362H104.425V20.6525H103.185V14.362Z" fill="black"/>
<path d="M108.104 12.79V14.3836H109.465V15.4274H108.104V18.6612C108.104 19.3229 108.374 19.6118 108.999 19.6118C109.157 19.6118 109.316 19.6025 109.474 19.5838V20.6183C109.25 20.6556 109.027 20.6835 108.803 20.6835C107.424 20.6835 106.874 20.1989 106.874 18.9874V15.4367H105.877V14.393H106.874V12.7994H108.113L108.104 12.79Z" fill="black"/>
<path d="M111.181 11.9082H112.412V15.375H112.514C112.85 14.6295 113.623 14.1821 114.434 14.2474C115.58 14.1821 116.559 15.0581 116.615 16.2044C116.615 16.3349 116.615 16.4654 116.596 16.5958V20.6591H115.347V16.9034C115.347 15.8969 114.881 15.3936 114.005 15.3936C113.194 15.3284 112.486 15.9248 112.421 16.7356C112.421 16.8195 112.421 16.9034 112.421 16.9873V20.6591H111.181V11.9082Z" fill="black"/>
<path d="M45.4513 24.1297L42.1056 21.483V15.4814C42.1056 15.0713 41.9472 14.9595 41.6583 14.9595H38.6015C38.266 14.9595 38.061 15.0247 38.061 15.4814V18.2865L28.6578 10.8683C28.2105 10.4023 27.4742 10.3837 27.0083 10.831C26.9989 10.8403 26.9803 10.859 26.971 10.8683L10.1682 24.1297C9.58106 24.5957 9.74881 25.2667 10.4012 25.2667H13.5138V42.1534C13.5138 43.2437 13.9518 43.6817 14.9863 43.6817H40.6145C41.6583 43.6817 42.087 43.2437 42.087 42.1534V25.2574H45.1996C45.8613 25.2574 46.0197 24.5864 45.4419 24.1297H45.4513ZM39.4869 39.7862C39.5707 40.4013 39.1421 40.9698 38.527 41.0537C38.4524 41.063 38.3872 41.063 38.3126 41.0537H17.3161C16.6917 41.0909 16.1605 40.6063 16.1326 39.9913C16.1326 39.9167 16.1326 39.8515 16.1326 39.7769V23.9993C16.1046 23.2723 16.4215 22.5827 16.9899 22.1354L27.0828 14.1673C27.2785 13.9903 27.5395 13.8784 27.8004 13.8691C28.0707 13.8878 28.3223 13.9903 28.518 14.1673L38.6109 22.1354C39.1793 22.5827 39.4962 23.2723 39.4682 23.9993V39.7956L39.4869 39.7862Z" fill="#F79918"/>
<path d="M38.6182 22.1295L28.5253 14.1615C28.3296 13.9844 28.0686 13.8726 27.8077 13.8633C27.5374 13.8819 27.2858 13.9844 27.0901 14.1615L16.9973 22.1295C16.4288 22.5769 16.1119 23.2665 16.1399 23.9934V39.7804C16.056 40.3955 16.4847 40.964 17.0998 41.0478C17.1743 41.0572 17.2396 41.0572 17.3141 41.0478H38.3013C38.9257 41.0758 39.4569 40.6005 39.4849 39.9761C39.4849 39.9016 39.4849 39.8363 39.4849 39.7618V23.9934C39.5128 23.2665 39.196 22.5769 38.6275 22.1295H38.6182ZM36.8568 37.4133C36.922 37.9165 36.5772 38.3732 36.074 38.4384C36.0087 38.4384 35.9435 38.4477 35.8689 38.4384H19.7371C19.2339 38.485 18.7959 38.1122 18.7493 37.609C18.7493 37.5438 18.7493 37.4785 18.7493 37.4133V25.0838C18.6934 24.5153 18.9357 23.9655 19.3923 23.63L27.2019 17.4606C27.5374 17.1437 28.0593 17.1437 28.3948 17.4606L36.2044 23.63C36.6611 23.9655 36.9034 24.5246 36.8475 25.0931V37.4226L36.8568 37.4133Z" fill="#FAAC28"/>
<path d="M36.2141 23.6268L28.4044 17.4574C28.0689 17.1405 27.5471 17.1405 27.2116 17.4574L19.4019 23.6268C18.9453 23.9623 18.703 24.5214 18.7589 25.0899V37.4194C18.6937 37.9227 19.0385 38.3793 19.5417 38.4446C19.607 38.4446 19.6722 38.4539 19.7374 38.4446H35.8786C36.3818 38.4911 36.8198 38.1184 36.8664 37.6151C36.8664 37.5499 36.8664 37.4847 36.8664 37.4194V25.0899C36.9223 24.5214 36.68 23.9623 36.2234 23.6268H36.2141ZM34.2384 35.043C34.2943 35.4158 34.0427 35.7606 33.6699 35.8165C33.614 35.8165 33.558 35.8258 33.4928 35.8165H22.1139C21.7411 35.8538 21.4056 35.5835 21.3683 35.2107C21.3683 35.1548 21.3683 35.0989 21.3683 35.0337V26.1616C21.3031 25.7609 21.4708 25.3509 21.797 25.1086C22.0766 24.8849 27.1743 20.8589 27.3327 20.7378C27.4632 20.626 27.6309 20.5607 27.7987 20.5514C27.9758 20.5514 28.1342 20.626 28.2647 20.7378C28.4138 20.8589 33.5114 24.8756 33.791 25.1086C34.1172 25.3509 34.285 25.7609 34.2197 26.1616V35.0337L34.2384 35.043Z" fill="#FDBF47"/>
<path d="M33.8118 25.1197C33.5322 24.896 28.4345 20.87 28.2854 20.7489C28.155 20.6371 27.9872 20.5718 27.8195 20.5625C27.6424 20.5625 27.4747 20.6371 27.3535 20.7489C27.2044 20.87 22.1067 24.8867 21.8271 25.1197C21.5009 25.362 21.3332 25.772 21.3984 26.1728V35.0448C21.3425 35.4176 21.5941 35.7624 21.9669 35.8183C22.0228 35.8183 22.0787 35.8276 22.144 35.8183H33.5229C33.8957 35.8556 34.2312 35.5853 34.2685 35.2125C34.2685 35.1566 34.2685 35.1007 34.2685 35.0355V26.1634C34.3337 25.7627 34.1659 25.3526 33.8398 25.1103L33.8118 25.1197ZM31.6218 32.6777C31.6218 33.1157 31.4074 33.2089 31.0999 33.2089H24.5204C24.2129 33.2089 23.9985 33.1157 23.9985 32.6777V27.2724C23.9985 26.9649 24.1383 26.676 24.3713 26.4803C24.5018 26.3685 27.3628 24.1318 27.4653 24.0479C27.661 23.8802 27.9593 23.8802 28.155 24.0479C28.2575 24.1318 31.1185 26.3685 31.249 26.4803C31.482 26.676 31.6218 26.9649 31.6218 27.2724V32.6777Z" fill="#FFD364"/>
<path d="M27.8092 33.2057H31.0989C31.4064 33.2057 31.6208 33.1125 31.6208 32.6745V27.2693C31.6208 26.9617 31.481 26.6728 31.248 26.4771C31.1175 26.3653 28.2565 24.1286 28.154 24.0448C27.9583 23.877 27.6601 23.877 27.4644 24.0448C27.3618 24.1286 24.5008 26.3653 24.3703 26.4771C24.1373 26.6728 23.9976 26.9617 23.9976 27.2693V32.6745C23.9976 33.1125 24.2119 33.2057 24.5194 33.2057H27.7999H27.8092Z" fill="#FFF080"/>
</svg>
