<svg width="177" height="56" viewBox="0 0 177 56" fill="none" xmlns="http://www.w3.org/2000/svg">
<path d="M176.221 48.8015C176.221 52.5456 172.674 55.6085 168.331 55.6085H8.27125C3.93039 55.6085 0.377686 52.5456 0.377686 48.8015V7.18303C0.377686 3.43889 3.92522 0.375977 8.27125 0.375977H168.331C172.672 0.375977 176.221 3.43889 176.221 7.18303V48.8015Z" fill="white"/>
<path d="M168.329 0.379415C172.67 0.379415 176.22 3.44233 176.22 7.18647V48.8049C176.22 52.549 172.672 55.612 168.329 55.612H8.27298C3.93212 55.612 0.379415 52.549 0.379415 48.8049V7.18475C0.379415 3.44061 3.92695 0.377691 8.27298 0.377691H168.329V0.379415ZM168.329 0.00517385H8.27298C3.70965 0.00517385 0 3.22676 0 7.19337V48.8118C0 52.7801 3.70965 56 8.27298 56H168.329C172.889 56 176.601 52.7767 176.601 48.8118V7.18475C176.604 3.21813 172.893 0 168.329 0V0.00517385Z" fill="#777677"/>
<path d="M57.8936 24.6779H60.6116V30.4364H66.6718V24.6779H69.3898V39.0939H66.6718V33.013H60.6116V39.0939H57.8936V24.6779ZM76.7419 39.4182C75.7761 39.432 74.8241 39.1888 73.9825 38.7128C73.1754 38.2541 72.5097 37.5832 72.0596 36.7692C71.5887 35.9155 71.3507 34.9549 71.3645 33.9805C71.3576 33.0285 71.5939 32.0886 72.0492 31.2521C72.4924 30.4278 73.1461 29.7362 73.9446 29.2481C74.7551 28.7497 75.6916 28.491 76.6419 28.5014C77.6007 28.4755 78.5476 28.7118 79.3805 29.186C80.1307 29.6293 80.7361 30.2829 81.1207 31.0659C81.5225 31.8868 81.726 32.7905 81.7139 33.7028C81.7139 33.9994 81.695 34.2961 81.6536 34.5893H73.9446C74.0256 35.3119 74.374 35.9776 74.9207 36.457C75.4484 36.8847 76.1107 37.1089 76.7884 37.0917C77.3351 37.1055 77.875 36.9709 78.3492 36.6985C78.7804 36.4415 79.1374 36.0776 79.3857 35.6413L81.5208 36.6881C80.5895 38.4455 78.7286 39.5079 76.7419 39.4182ZM79.1788 32.7129C79.1443 32.3697 79.0235 32.0403 78.8269 31.7574C78.6062 31.4298 78.3078 31.1607 77.9612 30.9727C77.5628 30.7572 77.1144 30.6502 76.6625 30.6606C76.0745 30.6468 75.4984 30.8417 75.0414 31.2142C74.5758 31.6074 74.236 32.13 74.0653 32.7146H79.1788V32.7129ZM86.1445 38.6111L81.8157 28.8239H84.8165L87.4742 35.2067H87.6363L90.1904 28.8239H93.1309L86.7895 43.4434H83.9508L86.1445 38.6111ZM105.334 39.4165C103.999 39.4285 102.684 39.0922 101.519 38.4403C100.373 37.8039 99.4171 36.8726 98.7497 35.743C98.0599 34.5772 97.7046 33.2423 97.7236 31.8868C97.7063 30.5312 98.0616 29.1981 98.7497 28.0305C99.4154 26.9009 100.373 25.9696 101.519 25.3332C102.685 24.6813 103.999 24.345 105.334 24.3571C106.395 24.3433 107.445 24.5451 108.425 24.9504C109.337 25.3315 110.158 25.9058 110.831 26.6302L108.954 28.4634C108.504 27.9771 107.959 27.5856 107.354 27.3165C106.707 27.0492 106.01 26.9182 105.31 26.9337C104.458 26.9251 103.618 27.1372 102.873 27.5476C102.135 27.9564 101.526 28.5634 101.112 29.2999C100.669 30.088 100.443 30.9814 100.459 31.8868C100.443 32.7939 100.673 33.6873 101.123 34.4737C101.544 35.2101 102.161 35.8172 102.904 36.2259C103.655 36.6364 104.496 36.8485 105.35 36.8399C106.562 36.8864 107.747 36.4622 108.652 35.6516C108.939 35.386 109.178 35.0721 109.358 34.7255C109.563 34.3392 109.711 33.9253 109.801 33.4976H105.272V31.1814H112.34C112.438 31.597 112.486 32.023 112.481 32.4507C112.49 33.3544 112.343 34.2547 112.048 35.1084C111.769 35.9138 111.319 36.6484 110.729 37.2624C110.08 37.9643 109.282 38.511 108.395 38.8629C107.421 39.244 106.381 39.432 105.334 39.4165ZM118.926 39.4165C117.933 39.4337 116.953 39.1871 116.087 38.7007C115.272 38.242 114.599 37.5659 114.144 36.7485C113.673 35.8948 113.435 34.9342 113.449 33.9598C113.437 32.9888 113.676 32.0316 114.144 31.1814C114.597 30.3605 115.27 29.681 116.087 29.2205C116.953 28.7359 117.933 28.4876 118.926 28.5048C119.912 28.4893 120.885 28.7359 121.744 29.2205C122.561 29.681 123.234 30.3605 123.688 31.1814C124.155 32.0316 124.395 32.9888 124.383 33.9598C124.398 34.9342 124.158 35.8948 123.688 36.7485C123.232 37.5659 122.561 38.242 121.747 38.7007C120.887 39.1854 119.912 39.432 118.926 39.4165ZM118.926 36.9796C119.419 36.9847 119.906 36.8588 120.335 36.6174C120.77 36.3708 121.125 36.0086 121.361 35.5706C121.627 35.0756 121.758 34.5203 121.744 33.9598C121.756 33.4062 121.623 32.8595 121.361 32.3731C121.123 31.9351 120.768 31.5712 120.335 31.3263C119.906 31.0848 119.419 30.9589 118.926 30.9641C118.433 30.9589 117.946 31.0848 117.517 31.3263C117.081 31.5729 116.722 31.9351 116.479 32.3731C116.21 32.8577 116.073 33.4062 116.086 33.9598C116.073 34.5185 116.21 35.0704 116.479 35.5602C116.72 36.0017 117.079 36.3673 117.515 36.6174C117.946 36.8588 118.433 36.9847 118.926 36.9796ZM130.907 39.4165C129.914 39.4337 128.934 39.1871 128.068 38.7007C127.252 38.242 126.58 37.5659 126.125 36.7485C125.654 35.8948 125.416 34.9342 125.43 33.9598C125.417 32.9888 125.657 32.0316 126.125 31.1814C126.578 30.3605 127.251 29.681 128.068 29.2205C128.934 28.7359 129.914 28.4876 130.907 28.5048C131.893 28.4893 132.866 28.7359 133.725 29.2205C134.542 29.681 135.215 30.3605 135.669 31.1814C136.136 32.0316 136.376 32.9888 136.364 33.9598C136.379 34.9342 136.139 35.8948 135.669 36.7485C135.213 37.5659 134.541 38.242 133.725 38.7007C132.866 39.1854 131.893 39.432 130.907 39.4165ZM130.907 36.9796C131.4 36.9847 131.886 36.8588 132.316 36.6174C132.751 36.3708 133.106 36.0086 133.342 35.5706C133.606 35.0756 133.739 34.5203 133.725 33.9598C133.737 33.4062 133.604 32.8595 133.342 32.3731C133.104 31.9351 132.749 31.5712 132.316 31.3263C131.886 31.0848 131.4 30.9589 130.907 30.9641C130.414 30.9589 129.927 31.0848 129.498 31.3263C129.063 31.5729 128.705 31.9351 128.461 32.3731C128.192 32.8577 128.056 33.4062 128.068 33.9598C128.056 34.5185 128.192 35.0704 128.461 35.5602C128.701 36.0017 129.06 36.3691 129.496 36.6174C129.926 36.8606 130.412 36.9847 130.907 36.9796ZM142.705 43.7625C141.56 43.8056 140.43 43.5003 139.463 42.8864C138.675 42.3897 138.067 41.6516 137.731 40.7823L140.208 39.7752C140.408 40.2684 140.753 40.6892 141.194 40.9841C141.641 41.2808 142.169 41.4343 142.705 41.4274C143.445 41.4636 144.164 41.1859 144.688 40.6616C145.211 40.0615 145.475 39.2802 145.423 38.4869V37.6815H145.261C144.938 38.1385 144.5 38.499 143.992 38.7283C143.428 38.9784 142.815 39.1026 142.2 39.0905C141.367 39.094 140.547 38.868 139.833 38.4369C139.09 37.9885 138.481 37.3486 138.071 36.5846C137.614 35.7275 137.385 34.7669 137.407 33.7959C137.386 32.825 137.614 31.8644 138.071 31.0072C138.481 30.2432 139.09 29.6034 139.833 29.155C140.547 28.7238 141.365 28.4979 142.2 28.5014C142.817 28.4893 143.428 28.6135 143.992 28.8635C144.5 29.0929 144.938 29.4551 145.261 29.9104H145.423V28.8239H147.96V38.3886C147.986 39.3802 147.763 40.3633 147.315 41.248C146.903 42.0379 146.265 42.688 145.482 43.1158C144.63 43.5642 143.672 43.7866 142.705 43.7625ZM142.746 36.695C143.457 36.7071 144.14 36.426 144.638 35.9207C145.182 35.3515 145.466 34.5824 145.423 33.7959C145.475 33.0043 145.194 32.2248 144.649 31.6488C144.143 31.1504 143.457 30.8779 142.746 30.8934C142.031 30.8796 141.341 31.1555 140.834 31.6591C140.287 32.23 140.003 33.0043 140.049 33.7942C140.003 34.5841 140.287 35.3567 140.834 35.9293C141.341 36.4363 142.031 36.714 142.748 36.7002V36.695H142.746ZM150.133 24.6727H152.77V39.0939H150.133V24.6727ZM159.477 39.413C158.511 39.4268 157.559 39.1836 156.717 38.7076C155.91 38.2489 155.245 37.5763 154.795 36.764C154.324 35.9103 154.086 34.9497 154.1 33.9753C154.093 33.0233 154.329 32.0834 154.784 31.2469C155.226 30.4226 155.879 29.731 156.676 29.2429C157.487 28.7445 158.423 28.4858 159.373 28.4962C160.332 28.4703 161.279 28.7066 162.112 29.1809C162.862 29.6224 163.469 30.2725 163.854 31.0538C164.256 31.8747 164.459 32.7784 164.447 33.6907C164.447 33.9874 164.428 34.284 164.387 34.5772H156.674C156.755 35.2998 157.104 35.9655 157.65 36.4449C158.178 36.8726 158.84 37.0968 159.518 37.0796C160.065 37.0934 160.605 36.9589 161.079 36.6864C161.51 36.4294 161.867 36.0655 162.116 35.6292L164.251 36.676C163.321 38.4351 161.464 39.501 159.477 39.4147V39.413ZM161.914 32.706C161.879 32.3628 161.759 32.0334 161.562 31.7505C161.341 31.4229 161.045 31.1538 160.696 30.9658C160.298 30.7503 159.849 30.6433 159.398 30.6537C158.809 30.6399 158.233 30.8348 157.776 31.2073C157.311 31.6005 156.971 32.1231 156.8 32.7077H161.914V32.706Z" fill="black"/>
<path d="M58.0081 14.2032H59.0635L60.5415 19.0873H60.5536L62.1057 14.2032H63.1716L64.7358 19.0752H64.7479L66.2138 14.2032H67.2555L65.2549 20.3842H64.2132L62.6128 15.4518L61.0261 20.3842H60L58.0081 14.2032ZM70.2235 20.5774C69.6492 20.586 69.0818 20.4342 68.5886 20.1411C68.1091 19.8565 67.7176 19.4443 67.4555 18.9528C67.183 18.4423 67.0433 17.8715 67.0502 17.292C67.0433 16.7125 67.183 16.1417 67.4555 15.6312C67.7176 15.1397 68.1091 14.7292 68.5886 14.4429C69.0835 14.1497 69.6492 13.998 70.2235 14.0066C70.7978 13.998 71.3652 14.1497 71.8584 14.4429C72.3379 14.7275 72.7294 15.1379 72.9915 15.6312C73.264 16.1417 73.4037 16.7125 73.3968 17.292C73.4037 17.8715 73.264 18.4423 72.9915 18.9528C72.7294 19.4443 72.3379 19.8548 71.8584 20.1411C71.3652 20.4342 70.7995 20.5843 70.2235 20.5774ZM70.2235 19.6444C70.596 19.6461 70.9616 19.5478 71.2842 19.3598C71.617 19.1649 71.8895 18.8821 72.0723 18.5423C72.2775 18.1595 72.3793 17.7283 72.3689 17.2937C72.3793 16.8591 72.2775 16.4297 72.0723 16.0451C71.8895 15.7053 71.617 15.4225 71.2842 15.2276C70.9634 15.0396 70.596 14.9413 70.2235 14.9431C69.8493 14.9413 69.4819 15.0396 69.1577 15.2276C68.8231 15.4208 68.5472 15.7053 68.3644 16.0451C68.1591 16.428 68.0574 16.8591 68.0677 17.2937C68.0574 17.7283 68.1591 18.1577 68.3644 18.5423C68.5489 18.8838 68.8231 19.1666 69.1577 19.3598C69.4819 19.5478 69.8493 19.6461 70.2235 19.6444ZM74.1142 14.2015H75.0956V15.1949H75.1438C75.2766 14.843 75.5233 14.5464 75.8475 14.355C76.17 14.1394 76.5494 14.0238 76.9374 14.0221C77.1858 14.0169 77.4324 14.0566 77.6652 14.1428V15.2569C77.3927 15.1241 77.0944 15.0586 76.7926 15.0621C76.4977 15.0603 76.2097 15.15 75.9682 15.3173C75.713 15.4915 75.506 15.726 75.3663 16.002C75.2163 16.2883 75.1404 16.6056 75.1421 16.9298V20.3842H74.116V14.2015H74.1142ZM78.2344 11.7042H79.2605V17.1592L82.1699 14.2032H83.4772V14.2515L81.0506 16.6987L83.5358 20.3342V20.3825H82.32L80.3298 17.4144L79.2639 18.4803V20.3825H78.2378L78.2344 11.7042ZM85.9054 20.5739C85.3173 20.5946 84.7362 20.4325 84.2446 20.1066C83.8169 19.8151 83.4875 19.3995 83.3013 18.9166L84.2222 18.5044C84.3585 18.8545 84.5965 19.1546 84.9069 19.365C85.2018 19.565 85.5502 19.6702 85.9072 19.6685C86.2538 19.6789 86.5953 19.5978 86.9005 19.4322C87.1558 19.3063 87.3162 19.0442 87.3127 18.7596C87.3179 18.5096 87.1937 18.2733 86.9868 18.1353C86.6729 17.9387 86.3245 17.8008 85.9606 17.73L85.2139 17.5352C84.7637 17.4369 84.3447 17.223 83.9997 16.9178C83.6859 16.6297 83.5134 16.2176 83.5272 15.7916C83.522 15.4501 83.6358 15.119 83.848 14.8517C84.0739 14.5723 84.3671 14.3567 84.7017 14.2273C85.0673 14.079 85.4588 14.0049 85.852 14.0083C86.3573 13.9997 86.8557 14.1204 87.3007 14.3601C87.7059 14.574 88.025 14.9206 88.2026 15.3415L87.3058 15.7536C87.0333 15.2035 86.4504 14.8758 85.8399 14.9293C85.526 14.9224 85.2173 15.0034 84.95 15.1655C84.7224 15.2794 84.5758 15.5105 84.5689 15.7657C84.5637 15.9813 84.6637 16.1865 84.8362 16.3176C85.0759 16.4866 85.3484 16.6039 85.6364 16.6625L86.5332 16.8936C87.042 16.9971 87.5145 17.2334 87.9025 17.5783C88.2044 17.868 88.3699 18.2698 88.363 18.6872C88.3699 19.0477 88.2544 19.3995 88.0353 19.6875C87.806 19.9824 87.499 20.2118 87.1506 20.348C86.7557 20.5067 86.3331 20.5843 85.9072 20.5791V20.5739H85.9054ZM91.1293 14.1998H92.183L93.6645 19.0856H93.6766L95.2287 14.2015H96.2945L97.8588 19.0735H97.8656L99.3316 14.2015H100.373L98.3727 20.3825H97.3327L95.7323 15.4501L94.1457 20.3825H93.1195L91.1293 14.1998ZM101.467 13.0615C101.27 13.0632 101.082 12.9839 100.946 12.8425C100.804 12.7062 100.725 12.5183 100.727 12.3216C100.723 12.1268 100.803 11.9388 100.946 11.806C101.084 11.668 101.272 11.5921 101.467 11.5939C101.662 11.5904 101.85 11.668 101.987 11.806C102.129 11.9388 102.208 12.1268 102.207 12.3216C102.21 12.5165 102.132 12.7045 101.994 12.8425C101.858 12.9873 101.667 13.0684 101.467 13.0632V13.0615ZM100.958 14.198H101.974V20.3791H100.956V14.198H100.958ZM105.311 20.4756C105.073 20.4774 104.837 20.436 104.614 20.3549C104.414 20.2825 104.231 20.1721 104.074 20.029C103.916 19.8806 103.791 19.6978 103.71 19.4961C103.624 19.2598 103.583 19.008 103.59 18.7562V15.1328H102.512V14.1998H103.59V12.4544H104.616V14.1998H106.12V15.1328H104.616V18.5027C104.597 18.7665 104.664 19.0287 104.811 19.2494C104.981 19.434 105.226 19.5323 105.478 19.5167C105.72 19.515 105.956 19.4426 106.158 19.3098V20.3152C106.039 20.3704 105.913 20.4118 105.783 20.436C105.628 20.4653 105.469 20.4791 105.311 20.4791V20.4756ZM106.825 11.6991H107.851V14.2567L107.803 15.1052H107.856C108.044 14.7706 108.324 14.4981 108.662 14.317C109.029 14.1066 109.445 13.998 109.867 14.0014C110.511 13.9583 111.138 14.1998 111.588 14.662C112.001 15.15 112.213 15.7761 112.182 16.4142V20.3773H111.156V16.5711C111.193 16.1175 111.04 15.6691 110.731 15.3346C110.431 15.0621 110.035 14.9172 109.629 14.9344C109.308 14.9327 108.996 15.0362 108.739 15.2259C108.469 15.4191 108.248 15.676 108.098 15.9727C107.943 16.2676 107.862 16.597 107.862 16.9298V20.3722H106.83L106.825 11.6991Z" fill="black"/>
<path d="M44.1902 23.3108C45.5009 23.3126 46.5633 22.2502 46.565 20.9412C46.5667 19.6305 45.5043 18.5681 44.1954 18.5664C42.8846 18.5647 41.8223 19.627 41.8206 20.936C41.8188 22.2467 42.8812 23.3091 44.1902 23.3108Z" fill="#34A853"/>
<path d="M37.0732 31.2066C39.6929 31.2083 41.8194 29.0853 41.8211 26.4656C41.8228 23.846 39.6998 21.7195 37.0801 21.7178C34.4605 21.716 32.334 23.8391 32.3323 26.4587V26.4622C32.3323 29.0819 34.4553 31.2066 37.0732 31.2066Z" fill="#EA4335"/>
<path d="M37.0753 43.8537C40.1313 43.8537 42.6096 41.3755 42.6096 38.3194C42.6096 35.2634 40.1313 32.7852 37.0753 32.7852C34.0193 32.7852 31.541 35.2634 31.541 38.3194C31.541 41.3755 34.0193 43.8537 37.0753 43.8537Z" fill="#FBBC04"/>
<path d="M21.2654 31.2003C26.5048 31.2021 30.7543 26.9543 30.756 21.7132C30.7577 16.4721 26.51 12.2244 21.2689 12.2227C16.0295 12.2209 11.78 16.4687 11.7783 21.7098V21.7132C11.7783 26.9526 16.0261 31.1986 21.2654 31.2003Z" fill="#4285F4"/>
</svg>
