<svg width="137" height="40" viewBox="0 0 137 40" fill="none" xmlns="http://www.w3.org/2000/svg">
<path fill-rule="evenodd" clip-rule="evenodd" d="M131.198 40H5.68651C2.91843 40 0.664062 37.7456 0.664062 35V5C0.664062 2.24439 2.91843 0 5.68651 0H131.198C133.963 0 136.22 2.24439 136.22 5V35C136.22 37.7456 133.963 40 131.198 40Z" fill="black"/>
<path fill-rule="evenodd" clip-rule="evenodd" d="M131.198 0.800499C133.519 0.800499 135.42 2.68828 135.42 5V35C135.42 37.3117 133.532 39.1995 131.198 39.1995H5.68651C3.36481 39.1995 1.46456 37.3117 1.46456 35V5C1.46456 2.68828 3.35234 0.800499 5.68651 0.800499H131.198ZM131.198 0H5.68651C2.91843 0 0.664062 2.25436 0.664062 5V35C0.664062 37.7556 2.91843 40 5.68651 40H131.198C133.963 40 136.22 37.7556 136.22 35V5C136.22 2.25436 133.963 0 131.198 0Z" fill="#A6A6A6"/>
<path d="M72.0756 13.232C71.1703 13.232 70.4072 12.9153 69.8037 12.2918C69.2052 11.6858 68.8711 10.8504 68.886 9.99755C68.886 9.08732 69.1953 8.31675 69.8037 7.70577C70.4047 7.08233 71.1678 6.76562 72.0731 6.76562C72.9683 6.76562 73.7314 7.08233 74.3449 7.70577C74.9534 8.3367 75.2626 9.10727 75.2626 9.99755C75.2526 10.9103 74.9434 11.6808 74.3449 12.2893C73.7439 12.9177 72.9808 13.232 72.0756 13.232ZM45.1404 13.232C44.2551 13.232 43.487 12.9202 42.8586 12.3043C42.2352 11.6908 41.9185 10.9153 41.9185 10C41.9185 9.08483 42.2352 8.30927 42.8586 7.6958C43.4746 7.07984 44.2426 6.76812 45.1404 6.76812C45.5793 6.76812 46.0057 6.8554 46.4147 7.03246C46.8162 7.20453 47.1429 7.43894 47.3848 7.72572L47.4446 7.79804L46.7688 8.46139L46.699 8.37909C46.3175 7.92523 45.8062 7.70328 45.1304 7.70328C44.5269 7.70328 44.0008 7.91774 43.5668 8.34169C43.1304 8.76812 42.9085 9.32672 42.9085 10.0025C42.9085 10.6783 43.1304 11.2369 43.5668 11.6634C44.0008 12.0873 44.5269 12.3018 45.1304 12.3018C45.7738 12.3018 46.315 12.0873 46.7364 11.6634C46.9858 11.414 47.1404 11.0649 47.1953 10.6235H45.0282V9.69081H48.1254L48.1379 9.7756C48.1603 9.93271 48.1828 10.0948 48.1828 10.2444C48.1828 11.1048 47.9234 11.8005 47.4097 12.3143C46.8262 12.9227 46.0631 13.232 45.1404 13.232ZM80.9534 13.0998H79.9983L77.0731 8.41899L77.098 9.26188V13.0973H76.1429V6.90029H77.2327L77.2626 6.94767L80.0132 11.3566L79.9883 10.5162V6.90029H80.9534V13.0998ZM64.8985 13.0998H63.9309V7.83296H62.2526V6.90029H66.5743V7.83296H64.896V13.0998H64.8985ZM61.4646 13.0998H60.4995V6.90029H61.4646V13.0998ZM56.0407 13.0998H55.0756V7.83296H53.3973V6.90029H57.719V7.83296H56.0407V13.0998ZM52.7863 13.0898H49.0855V6.90029H52.7863V7.83296H50.0531V9.5337H52.5195V10.4564H50.0531V12.1571H52.7863V13.0898ZM70.512 11.6509C70.9434 12.0823 71.4671 12.2993 72.0756 12.2993C72.7015 12.2993 73.2127 12.0873 73.6392 11.6509C74.0631 11.227 74.2776 10.6709 74.2776 10C74.2776 9.32922 74.0631 8.77061 73.6416 8.34917C73.2102 7.91774 72.684 7.70079 72.0781 7.70079C71.4521 7.70079 70.9409 7.91276 70.517 8.34917C70.093 8.77311 69.8786 9.32922 69.8786 10C69.8786 10.6709 70.0905 11.2295 70.512 11.6509Z" fill="white"/>
<path fill-rule="evenodd" clip-rule="evenodd" d="M68.7962 21.7557C66.4396 21.7557 64.5294 23.5437 64.5294 26.01C64.5294 28.4539 66.4521 30.2644 68.7962 30.2644C71.1528 30.2644 73.063 28.4639 73.063 26.01C73.063 23.5437 71.1528 21.7557 68.7962 21.7557ZM68.7962 28.5786C67.5069 28.5786 66.3972 27.5113 66.3972 26.0001C66.3972 24.4664 67.5094 23.4215 68.7962 23.4215C70.0855 23.4215 71.1952 24.4664 71.1952 26.0001C71.1977 27.5212 70.0855 28.5786 68.7962 28.5786ZM59.487 21.7557C57.1304 21.7557 55.2202 23.5437 55.2202 26.01C55.2202 28.4539 57.1428 30.2644 59.487 30.2644C61.8436 30.2644 63.7538 28.4639 63.7538 26.01C63.7538 23.5437 61.8411 21.7557 59.487 21.7557ZM59.487 28.5786C58.1977 28.5786 57.088 27.5113 57.088 26.0001C57.088 24.4664 58.2002 23.4215 59.487 23.4215C60.7763 23.4215 61.886 24.4664 61.886 26.0001C61.886 27.5212 60.7763 28.5786 59.487 28.5786ZM48.4097 23.0549V24.8554H52.7314C52.5992 25.8654 52.265 26.611 51.7538 27.1222C51.1204 27.7557 50.1428 28.4439 48.4197 28.4439C45.7638 28.4439 43.6865 26.2993 43.6865 23.6434C43.6865 20.9876 45.7638 18.8429 48.4197 18.8429C49.8536 18.8429 50.8985 19.409 51.674 20.1322L52.9508 18.8554C51.8735 17.823 50.4396 17.0325 48.4296 17.0325C44.7862 17.0325 41.7289 20.0001 41.7289 23.6335C41.7289 27.2769 44.7837 30.2345 48.4296 30.2345C50.3972 30.2345 51.8735 29.5911 53.0406 28.3791C54.2301 27.1896 54.6067 25.5113 54.6067 24.1572C54.6067 23.7357 54.5743 23.3567 54.5069 23.035H48.4072C48.4097 23.0325 48.4097 23.0549 48.4097 23.0549ZM93.7189 24.4564C93.3623 23.5013 92.285 21.7457 90.0755 21.7457C87.886 21.7457 86.0655 23.4689 86.0655 26.0001C86.0655 28.3891 87.866 30.2544 90.2875 30.2544C92.2326 30.2544 93.3648 29.0649 93.8311 28.3666L92.3872 27.3991C91.9084 28.1098 91.2426 28.5761 90.2975 28.5761C89.3424 28.5761 88.674 28.1422 88.2301 27.2868L93.9184 24.9302C93.9184 24.9327 93.7189 24.4564 93.7189 24.4564ZM87.9184 25.8779C87.8735 24.2345 89.1952 23.3991 90.1404 23.3991C90.886 23.3991 91.5069 23.7656 91.7189 24.2993L87.9184 25.8779ZM83.2975 30.0001H85.1653V17.5013H83.2975V30.0001ZM80.2301 22.7008H80.1628C79.7413 22.1996 78.9408 21.7457 77.9184 21.7457C75.7962 21.7457 73.8411 23.6135 73.8411 26.0125C73.8411 28.4015 75.7862 30.2469 77.9184 30.2469C78.9284 30.2469 79.7413 29.7906 80.1628 29.2794H80.2301V29.8903C80.2301 31.5138 79.3623 32.3891 77.9633 32.3891C76.8187 32.3891 76.1079 31.5661 75.8187 30.8779L74.1952 31.5562C74.6616 32.6784 75.9059 34.0674 77.9608 34.0674C80.1503 34.0674 82.0057 32.7781 82.0057 29.6335V22.0001H80.2401V22.7008C80.2426 22.7008 80.2301 22.7008 80.2301 22.7008ZM78.0855 28.5786C76.7962 28.5786 75.7189 27.5013 75.7189 26.0125C75.7189 24.5113 76.7962 23.424 78.0855 23.424C79.3623 23.424 80.3523 24.5237 80.3523 26.0125C80.3648 27.5013 79.3648 28.5786 78.0855 28.5786ZM102.465 17.5013H97.9982V30.0001H99.866V25.2669H102.467C104.534 25.2669 106.567 23.7681 106.567 21.3891C106.567 19.01 104.542 17.5013 102.465 17.5013ZM102.519 23.5212H99.8635V19.232H102.519C103.918 19.232 104.709 20.3866 104.709 21.3766C104.709 22.3567 103.908 23.5212 102.519 23.5212ZM114.053 21.7332C112.696 21.7332 111.297 22.3342 110.719 23.6434L112.375 24.3317C112.731 23.6434 113.385 23.409 114.076 23.409C115.043 23.409 116.021 23.9876 116.043 25.02V25.1522C115.709 24.9626 114.976 24.6734 114.098 24.6734C112.31 24.6734 110.497 25.6509 110.497 27.4838C110.497 29.1621 111.963 30.2395 113.597 30.2395C114.851 30.2395 115.542 29.6734 115.973 29.0175H116.041V29.9851H117.841V25.1971C117.841 22.9676 116.185 21.7332 114.053 21.7332ZM113.819 28.5786C113.208 28.5786 112.352 28.2794 112.352 27.5113C112.352 26.5437 113.42 26.1771 114.33 26.1771C115.153 26.1771 115.542 26.3542 116.031 26.5986C115.896 27.7207 114.948 28.5686 113.819 28.5786ZM124.41 22.0001L122.265 27.4215H122.198L119.976 22.0001H117.966L121.3 29.5786L119.4 33.7906H121.345L126.475 22.0001H124.41ZM107.597 30.0001H109.465V17.5013H107.597V30.0001Z" fill="white"/>
<path fill-rule="evenodd" clip-rule="evenodd" d="M11.098 7.53364C10.8087 7.84536 10.6416 8.32167 10.6416 8.94511V31.0573C10.6416 31.6808 10.8087 32.1571 11.1079 32.4563L11.1852 32.5237L23.5743 20.1346V19.8578L11.1753 7.46631L11.098 7.53364Z" fill="url(#paint0_linear_1_1337)"/>
<path fill-rule="evenodd" clip-rule="evenodd" d="M27.6965 24.2768L23.5643 20.1446V19.8553L27.6965 15.7231L27.7863 15.778L32.6741 18.5561C34.0731 19.3441 34.0731 20.6458 32.6741 21.4438L27.7863 24.2219L27.6965 24.2768Z" fill="url(#paint1_linear_1_1337)"/>
<path fill-rule="evenodd" clip-rule="evenodd" d="M27.7862 24.2219L23.5643 20L11.098 32.4663C11.5543 32.9551 12.3199 33.01 13.1753 32.5337L27.7862 24.2219Z" fill="url(#paint2_linear_1_1337)"/>
<path fill-rule="evenodd" clip-rule="evenodd" d="M27.7862 15.7782L13.1753 7.47894C12.3199 6.99016 11.5518 7.05749 11.098 7.54627L23.5643 20.0001L27.7862 15.7782Z" fill="url(#paint3_linear_1_1337)"/>
<path opacity="0.2" fill-rule="evenodd" clip-rule="evenodd" d="M27.6965 24.1323L13.1853 32.3767C12.3748 32.843 11.6516 32.8106 11.1853 32.3867L11.108 32.464L11.1853 32.5313C11.6516 32.9528 12.3748 32.9877 13.1853 32.5214L27.7963 24.2221L27.6965 24.1323Z" fill="black"/>
<path opacity="0.12" fill-rule="evenodd" clip-rule="evenodd" d="M32.674 21.2993L27.684 24.1322L27.7737 24.2219L32.6615 21.4439C33.3623 21.0449 33.7064 20.5212 33.7064 20C33.664 20.4788 33.3074 20.9327 32.674 21.2993Z" fill="black"/>
<path opacity="0.25" fill-rule="evenodd" clip-rule="evenodd" d="M13.1753 7.62329L32.674 18.7006C33.3074 19.0572 33.664 19.5235 33.7189 19.9999C33.7189 19.4787 33.3748 18.955 32.674 18.556L13.1753 7.47866C11.7763 6.67816 10.6416 7.34649 10.6416 8.94499V9.08963C10.6416 7.48863 11.7763 6.83277 13.1753 7.62329Z" fill="white"/>
<defs>
<linearGradient id="paint0_linear_1_1337" x1="22.463" y1="8.70654" x2="2.61791" y2="13.9943" gradientUnits="userSpaceOnUse">
<stop stop-color="#00A0FF"/>
<stop offset="0.00657" stop-color="#00A1FF"/>
<stop offset="0.2601" stop-color="#00BEFF"/>
<stop offset="0.5122" stop-color="#00D2FF"/>
<stop offset="0.7604" stop-color="#00DFFF"/>
<stop offset="1" stop-color="#00E3FF"/>
</linearGradient>
<linearGradient id="paint1_linear_1_1337" x1="34.4985" y1="20" x2="10.3016" y2="20" gradientUnits="userSpaceOnUse">
<stop stop-color="#FFE000"/>
<stop offset="0.4087" stop-color="#FFBD00"/>
<stop offset="0.7754" stop-color="#FFA500"/>
<stop offset="1" stop-color="#FF9C00"/>
</linearGradient>
<linearGradient id="paint2_linear_1_1337" x1="25.4905" y1="22.2973" x2="9.55898" y2="49.1114" gradientUnits="userSpaceOnUse">
<stop stop-color="#FF3A44"/>
<stop offset="1" stop-color="#C31162"/>
</linearGradient>
<linearGradient id="paint3_linear_1_1337" x1="7.9588" y1="0.178927" x2="15.0665" y2="12.1545" gradientUnits="userSpaceOnUse">
<stop stop-color="#32A071"/>
<stop offset="0.0685" stop-color="#2DA771"/>
<stop offset="0.4762" stop-color="#15CF74"/>
<stop offset="0.8009" stop-color="#06E775"/>
<stop offset="1" stop-color="#00F076"/>
</linearGradient>
</defs>
</svg>
