<svg width="32" height="34" viewBox="0 0 32 34" fill="none" xmlns="http://www.w3.org/2000/svg">
<path d="M25.0945 27.429H7" stroke="#28231F" stroke-width="1.2"/>
<path d="M16.048 29.8722C16.237 29.8722 16.397 30.0322 16.397 30.2213C16.397 30.4104 16.237 30.5704 16.048 30.5704C15.8589 30.5704 15.6989 30.4104 15.6989 30.2213C15.6989 30.0322 15.8589 29.8722 16.048 29.8722Z" stroke="#28231F" stroke-width="1.2"/>
<path d="M7 3.77818C7 2.23636 8.25091 1 9.77818 1H22.3018C23.8436 1 25.08 2.25091 25.08 3.77818V30.2218C25.08 31.7636 23.8291 33 22.3018 33H9.79273C8.25091 33 7.01455 31.7491 7.01455 30.2218V3.77818H7Z" stroke="#28231F" stroke-width="1.2"/>
<path d="M20.0338 18.4409H12.0628C11.8592 18.4409 11.6847 18.2663 11.6847 18.0627V13.2627C11.6847 13.1463 11.7428 13.0299 11.8301 12.9572L15.8156 9.80085C15.9465 9.69903 16.1501 9.69903 16.281 9.80085L20.2665 12.9572C20.3538 13.0299 20.4119 13.1463 20.4119 13.2627V18.0627C20.4119 18.2808 20.2374 18.4409 20.0338 18.4409Z" stroke="#28231F" stroke-width="1.2"/>
</svg>
