<svg width="32" height="34" viewBox="0 0 32 34" fill="none" xmlns="http://www.w3.org/2000/svg">
<path d="M4 14.9131C4 14.1425 4.62519 13.5173 5.39577 13.5173H26.2596C27.0302 13.5173 27.6554 14.1425 27.6554 14.9131V31.6042C27.6554 32.3748 27.0302 32.9999 26.2596 32.9999H5.39577C4.62519 32.9999 4 32.3748 4 31.6042V14.9131Z" stroke="#28231F" stroke-width="1.2"/>
<path d="M8.17438 8.64765C8.17438 4.41673 11.6056 1 15.822 1C20.0384 1 23.4697 4.43126 23.4697 8.64765V13.5183H8.17438V8.64765Z" stroke="#28231F" stroke-width="1.2"/>
<path d="M20.5618 23.7688C17.9157 21.2244 13.7284 21.2244 11.0822 23.7688" stroke="#28231F" stroke-width="1.2"/>
<path d="M23.4098 20.745C19.1789 16.674 12.4763 16.674 8.24536 20.745" stroke="#28231F" stroke-width="1.2"/>
<path d="M15.8203 28.815C16.5909 28.815 17.2161 28.1898 17.2161 27.4192C17.2161 26.6486 16.5909 26.0234 15.8203 26.0234C15.0497 26.0234 14.4246 26.6486 14.4246 27.4192C14.4246 28.1898 15.0497 28.815 15.8203 28.815Z" stroke="#28231F" stroke-width="1.2"/>
</svg>
